<svg aria-hidden="true" style="position: absolute; width: 0; height: 0; overflow: hidden;" version="1.1" xmlns="http://www.w3.org/2000/svg" xmlns:xlink="http://www.w3.org/1999/xlink">
<defs>
<symbol id="icon-medal" viewBox="0 0 32 32">
<path fill="none" stroke="#e6800a" style="stroke: var(--color1, #e6800a)" stroke-linejoin="round" stroke-linecap="round" stroke-miterlimit="4" stroke-width="2.4706" d="M16 22c5.523 0 10-4.477 10-10s-4.477-10-10-10c-5.523 0-10 4.477-10 10s4.477 10 10 10z"></path>
<path fill="#e6800a" style="fill: var(--color1, #e6800a); stroke: var(--color1, #e6800a)" stroke="#e6800a" stroke-linejoin="round" stroke-linecap="round" stroke-miterlimit="4" stroke-width="2.4706" d="M16 18c3.314 0 6-2.686 6-6s-2.686-6-6-6c-3.314 0-6 2.686-6 6s2.686 6 6 6z"></path>
<path fill="none" stroke="#e6800a" style="stroke: var(--color1, #e6800a)" stroke-linejoin="round" stroke-linecap="round" stroke-miterlimit="4" stroke-width="2.4706" d="M22 20v10l-6-3-6 3v-10"></path>
</symbol>
<symbol id="icon-checked" viewBox="0 0 32 32">
<path fill="none" stroke="#6bba25" style="stroke: var(--color2, #6bba25)" stroke-linejoin="round" stroke-linecap="round" stroke-miterlimit="4" stroke-width="1.6572" d="M20.784 12.566l-7.093 6.767-3.54-3.383"></path>
<path fill="none" stroke="#6bba25" style="stroke: var(--color2, #6bba25)" stroke-linejoin="round" stroke-linecap="round" stroke-miterlimit="4" stroke-width="1.6572" d="M15.467 27.067c6.407 0 11.6-5.194 11.6-11.6s-5.194-11.6-11.6-11.6c-6.407 0-11.6 5.194-11.6 11.6s5.194 11.6 11.6 11.6z"></path>
</symbol>
<symbol id="icon-dice" viewBox="0 0 32 32">
<path fill="#b0c1ab" style="fill: var(--color3, #b0c1ab)" d="M11.757 16.346h-9.047c-1.497 0-2.707 1.211-2.707 2.707v9.047c0 1.496 1.211 2.707 2.707 2.707h9.047c1.497 0 2.707-1.211 2.707-2.707v-9.047c0.014-1.483-1.211-2.707-2.707-2.707zM4.519 27.203c-0.503 0-0.898-0.408-0.898-0.898s0.408-0.898 0.898-0.898c0.503 0 0.898 0.408 0.898 0.898s-0.395 0.898-0.898 0.898zM4.519 21.774c-0.503 0-0.898-0.408-0.898-0.898 0-0.503 0.408-0.898 0.898-0.898 0.503 0 0.898 0.408 0.898 0.898 0.014 0.49-0.395 0.898-0.898 0.898zM7.24 24.496c-0.503 0-0.898-0.408-0.898-0.898 0-0.503 0.408-0.898 0.898-0.898 0.503 0 0.898 0.408 0.898 0.898s-0.395 0.898-0.898 0.898zM9.947 27.203c-0.503 0-0.898-0.408-0.898-0.898s0.408-0.898 0.898-0.898c0.49 0 0.898 0.408 0.898 0.898s-0.395 0.898-0.898 0.898zM9.947 21.774c-0.503 0-0.898-0.408-0.898-0.898 0-0.503 0.408-0.898 0.898-0.898s0.898 0.408 0.898 0.898c0.014 0.49-0.395 0.898-0.898 0.898zM30.028 7.19l-6.394-6.394c-1.061-1.061-2.775-1.061-3.837 0l-6.394 6.394c-1.061 1.061-1.061 2.775 0 3.837l6.394 6.394c1.061 1.061 2.775 1.061 3.837 0l6.394-6.394c1.048-1.048 1.048-2.775 0-3.837zM18.518 9.748c-0.354 0.354-0.925 0.354-1.279 0s-0.354-0.925 0-1.279c0.354-0.354 0.925-0.354 1.279 0 0.34 0.354 0.34 0.939 0 1.279zM22.355 13.598c-0.354 0.354-0.925 0.354-1.279 0s-0.354-0.925 0-1.279c0.354-0.354 0.925-0.354 1.279 0 0.354 0.34 0.354 0.925 0 1.279zM22.355 5.911c-0.354 0.354-0.925 0.354-1.279 0s-0.354-0.925 0-1.279c0.354-0.354 0.925-0.354 1.279 0s0.354 0.925 0 1.279zM26.192 9.748c-0.354 0.354-0.925 0.354-1.279 0s-0.354-0.925 0-1.279c0.354-0.354 0.925-0.354 1.279 0s0.354 0.939 0 1.279z"></path>
</symbol>
<symbol id="icon-ball" viewBox="0 0 34 32">
<path fill="#b0c1ab" style="fill: var(--color3, #b0c1ab)" d="M22.658 15.005c-1.931 0.177-3.833 0.727-5.589 1.65-0.094 2.545-0.753 5.034-1.928 7.279l-0.232 0.894-0.236-0.061c-1.381 2.313-3.298 4.274-5.574 5.71 1.742 0.836 3.658 1.366 5.679 1.522l-0.197-0.343 0.916-0.527c5.666-3.257 8.528-9.793 7.16-16.125z"></path>
<path fill="#b0c1ab" style="fill: var(--color3, #b0c1ab)" d="M31.522 16.94c-2.081-1.199-4.388-1.856-6.716-1.975 1.236 6.467-1.364 13.060-6.634 16.941 7.447-0.998 13.275-7.11 13.833-14.688l-0.482-0.278z"></path>
<path fill="#b0c1ab" style="fill: var(--color3, #b0c1ab)" d="M10.714 8.951c4.982-4.304 11.992-5.35 17.988-2.727-2.931-3.786-7.519-6.224-12.678-6.224-2.493 0-4.853 0.569-6.957 1.585l0.001 0.56c0.002 2.402 0.585 4.729 1.646 6.805z"></path>
<path fill="#b0c1ab" style="fill: var(--color3, #b0c1ab)" d="M11.825 10.789c1.119 1.583 2.546 2.956 4.223 4.015 2.251-1.191 4.737-1.865 7.268-1.971l0.891-0.246 0.065 0.234c2.693 0.040 5.349 0.719 7.73 1.971-0.154-2.021-0.683-3.938-1.517-5.68l-0.2 0.345-0.914-0.53c-5.654-3.279-12.746-2.489-17.546 1.862z"></path>
<path fill="#b0c1ab" style="fill: var(--color3, #b0c1ab)" d="M3.204 8.016c-0.012 6.536 4.217 12.283 10.385 14.264 0.812-1.76 1.287-3.683 1.365-5.665-2.157-1.354-3.984-3.17-5.341-5.309l-0.659-0.648 0.17-0.173c-1.312-2.352-2.052-4.992-2.158-7.679-1.628 1.117-3.039 2.527-4.157 4.154l0.396 0.001-0.002 1.057z"></path>
<path fill="#b0c1ab" style="fill: var(--color3, #b0c1ab)" d="M12.554 24.161c-6.221-2.163-10.632-7.714-11.357-14.222-0.771 1.877-1.197 3.931-1.197 6.086 0 5.503 2.775 10.358 7.001 13.243l0.482-0.279c2.079-1.203 3.803-2.871 5.070-4.828z"></path>
</symbol>
<symbol id="icon-burger" viewBox="0 0 54 32">
<path fill="none" stroke="#fff" style="stroke: var(--color4, #fff)" stroke-linejoin="round" stroke-linecap="round" stroke-miterlimit="4" stroke-width="3.3727" d="M50.377 2h-48.377M50.377 16.015h-48.377M50.377 30.029h-48.377"></path>
</symbol>
<symbol id="icon-close" viewBox="0 0 30 32">
<path fill="none" stroke="#beff06" style="stroke: var(--color1, #beff06)" stroke-linejoin="round" stroke-linecap="round" stroke-miterlimit="4" stroke-width="3.3684" d="M27.578 2.762l-25.649 26.448"></path>
<path fill="none" stroke="#beff06" style="stroke: var(--color1, #beff06)" stroke-linejoin="round" stroke-linecap="round" stroke-miterlimit="4" stroke-width="3.3684" d="M3.215 3.161l26.448 25.649"></path>
</symbol>
<symbol id="icon-right" viewBox="0 0 19 32">
<path d="M1.722 27.176c0 2.176 2.631 3.266 4.17 1.727l11.202-11.202c0.954-0.954 0.954-2.501 0-3.455l-11.202-11.202c-1.539-1.539-4.17-0.449-4.17 1.727v22.404z"></path>
</symbol>
<symbol id="icon-right-white" viewBox="0 0 19 32">
<path fill="#fff" style="fill: var(--color1, #fff)" d="M0 28.229c0 2.376 2.872 3.566 4.552 1.886l12.229-12.229c1.041-1.041 1.041-2.73 0-3.771l-12.229-12.229c-1.68-1.68-4.552-0.49-4.552 1.886v24.458z"></path>
</symbol>
<symbol id="icon-arrow-right" viewBox="0 0 130 32">
<path d="M3.955 14.089c-1.105 0-2 0.895-2 2s0.895 2 2 2v-4zM129.28 17.503c0.781-0.781 0.781-2.047 0-2.828l-12.728-12.728c-0.781-0.781-2.047-0.781-2.828 0s-0.781 2.047 0 2.828l11.314 11.314-11.314 11.314c-0.781 0.781-0.781 2.047 0 2.828s2.047 0.781 2.828 0l12.728-12.728zM3.955 18.089l123.911 0v-4l-123.911-0v4z"></path>
</symbol>
<symbol id="icon-arrow-left" viewBox="0 0 118 32">
<path d="M115.111 18.089c1.104 0 2-0.895 2-2s-0.896-2-2-2v4zM0.719 14.675c-0.781 0.781-0.781 2.047 0 2.828l12.728 12.728c0.781 0.781 2.047 0.781 2.828 0s0.781-2.047 0-2.828l-11.314-11.314 11.314-11.314c0.781-0.781 0.781-2.047 0-2.828s-2.047-0.781-2.828 0l-12.728 12.728zM115.111 14.089h-112.978v4h112.978v-4z"></path>
</symbol>
<symbol id="icon-checked-green" viewBox="0 0 32 32">
<path fill="#6bba25" style="fill: var(--color1, #6bba25); stroke: var(--color1, #6bba25)" stroke="#6bba25" stroke-linejoin="round" stroke-linecap="round" stroke-miterlimit="4" stroke-width="2.1818" d="M16 28c6.627 0 12-5.373 12-12s-5.373-12-12-12c-6.627 0-12 5.373-12 12s5.373 12 12 12z"></path>
<path fill="none" stroke="#e4e4e4" style="stroke: var(--color2, #e4e4e4)" stroke-linejoin="round" stroke-linecap="round" stroke-miterlimit="4" stroke-width="2.1818" d="M21.5 13l-7.337 7-3.662-3.5"></path>
</symbol>
<symbol id="icon-inf-left" viewBox="0 0 56 32">
<path fill="#949494" style="fill: var(--color3, #949494)" d="M0.586 14.586c-0.781 0.781-0.781 2.047 0 2.828l12.728 12.728c0.781 0.781 2.047 0.781 2.828 0s0.781-2.047 0-2.828l-11.314-11.314 11.314-11.314c0.781-0.781 0.781-2.047 0-2.828s-2.047-0.781-2.828 0l-12.728 12.728zM54 18c1.105 0 2-0.895 2-2s-0.895-2-2-2v4zM2 18h52v-4h-52v4z"></path>
</symbol>
<symbol id="icon-inf-right" viewBox="0 0 56 32">
<path fill="#949494" style="fill: var(--color3, #949494)" d="M55.414 17.414c0.781-0.781 0.781-2.047 0-2.828l-12.728-12.728c-0.781-0.781-2.047-0.781-2.828 0s-0.781 2.047 0 2.828l11.314 11.314-11.314 11.314c-0.781 0.781-0.781 2.047 0 2.828s2.047 0.781 2.828 0l12.728-12.728zM2 14c-1.105 0-2 0.895-2 2s0.895 2 2 2v-4zM54 14h-52v4h52v-4z"></path>
</symbol>
<symbol id="icon-pic-1" viewBox="0 0 32 32">
<path fill="#6bba25" style="fill: var(--color3, #6bba25)" d="M2.833 7.938h0.947v0.9c0 0.497 0.424 0.9 0.946 0.9s0.947-0.403 0.947-0.9v-0.9h0.947c0.523 0 0.947-0.403 0.947-0.9s-0.424-0.9-0.947-0.9h-0.961v-0.873c0-0.497-0.424-0.9-0.947-0.9s-0.946 0.403-0.946 0.9v0.9h-0.932c-0.523 0-0.946 0.403-0.946 0.9 0 0.484 0.424 0.873 0.946 0.873zM25.422 7.938h0.947v0.9c0 0.497 0.424 0.9 0.947 0.9s0.947-0.403 0.947-0.9v-0.9h0.947c0.523 0 0.947-0.403 0.947-0.9s-0.424-0.9-0.947-0.9h-0.947v-0.873c0-0.497-0.424-0.9-0.947-0.9s-0.947 0.403-0.947 0.9v0.9h-0.947c-0.523 0-0.947 0.403-0.947 0.9 0 0.484 0.424 0.873 0.947 0.873zM16.014 20.474c-0.523 0-0.947 0.403-0.947 0.9s0.424 0.9 0.947 0.9c0.523 0 0.947-0.403 0.947-0.9-0.014-0.497-0.438-0.9-0.947-0.9zM31.582 9.873c-0.325-0.202-0.763-0.188-1.074 0.040l-6.399 4.569-1.54-5.858c-0.085-0.336-0.367-0.591-0.735-0.658-0.339-0.067-0.721 0.067-0.932 0.336l-4.888 6.208-4.902-6.208c-0.212-0.282-0.593-0.403-0.932-0.336-0.353 0.067-0.636 0.322-0.735 0.658l-1.54 5.859-6.4-4.569c-0.311-0.228-0.735-0.242-1.074-0.040-0.325 0.202-0.494 0.578-0.41 0.941l3.772 16.124c0.099 0.403 0.48 0.699 0.918 0.699h22.589c0.438 0 0.819-0.296 0.918-0.699l3.758-16.111c0.085-0.363-0.071-0.752-0.396-0.954zM10.363 22.262h-2.825c-0.523 0-0.947-0.403-0.947-0.9s0.424-0.9 0.947-0.9h2.825c0.523 0 0.947 0.403 0.947 0.9-0.014 0.511-0.424 0.9-0.947 0.9zM16.014 24.062c-1.554 0-2.825-1.209-2.825-2.687s1.271-2.687 2.825-2.687c1.554 0 2.825 1.209 2.825 2.687-0.014 1.478-1.271 2.687-2.825 2.687zM24.476 22.262h-2.825c-0.523 0-0.947-0.403-0.947-0.9s0.424-0.9 0.947-0.9h2.825c0.523 0 0.947 0.403 0.947 0.9 0 0.511-0.424 0.9-0.947 0.9z"></path>
</symbol>
<symbol id="icon-pic-2" viewBox="0 0 32 32">
<path fill="#6bba25" style="fill: var(--color3, #6bba25)" d="M12.208 16.977h-9.396c-1.554 0-2.812 1.258-2.812 2.812v9.396c0 1.554 1.258 2.812 2.812 2.812h9.396c1.554 0 2.812-1.258 2.812-2.812v-9.396c0.014-1.54-1.258-2.812-2.812-2.812zM4.691 28.252c-0.523 0-0.933-0.424-0.933-0.933s0.424-0.933 0.933-0.933c0.523 0 0.933 0.424 0.933 0.933s-0.41 0.933-0.933 0.933zM4.691 22.614c-0.523 0-0.933-0.424-0.933-0.933 0-0.523 0.424-0.932 0.933-0.932 0.523 0 0.933 0.424 0.933 0.932 0.014 0.509-0.41 0.933-0.933 0.933zM7.517 25.44c-0.523 0-0.933-0.424-0.933-0.933 0-0.523 0.424-0.933 0.933-0.933 0.523 0 0.933 0.424 0.933 0.933s-0.41 0.933-0.933 0.933zM10.329 28.252c-0.523 0-0.933-0.424-0.933-0.933s0.424-0.933 0.933-0.933c0.509 0 0.932 0.424 0.932 0.933s-0.41 0.933-0.932 0.933zM10.329 22.614c-0.523 0-0.933-0.424-0.933-0.933 0-0.523 0.424-0.932 0.933-0.932s0.932 0.424 0.932 0.932c0.014 0.509-0.41 0.933-0.932 0.933zM31.184 7.468l-6.641-6.641c-1.102-1.102-2.882-1.102-3.985 0l-6.641 6.641c-1.102 1.102-1.102 2.882 0 3.985l6.641 6.641c1.102 1.102 2.882 1.102 3.985 0l6.641-6.641c1.088-1.088 1.088-2.882 0-3.985zM19.23 10.124c-0.367 0.367-0.961 0.367-1.328 0s-0.367-0.961 0-1.328c0.367-0.367 0.961-0.367 1.328 0 0.353 0.367 0.353 0.975 0 1.328zM23.215 14.123c-0.367 0.367-0.961 0.367-1.328 0s-0.367-0.961 0-1.328c0.367-0.367 0.961-0.367 1.328 0 0.367 0.353 0.367 0.961 0 1.328zM23.215 6.139c-0.367 0.367-0.961 0.367-1.328 0s-0.367-0.961 0-1.328c0.367-0.367 0.961-0.367 1.328 0s0.367 0.961 0 1.328zM27.199 10.124c-0.367 0.367-0.961 0.367-1.328 0s-0.367-0.961 0-1.328c0.367-0.367 0.961-0.367 1.328 0s0.367 0.975 0 1.328z"></path>
</symbol>
<symbol id="icon-pic-3" viewBox="0 0 32 32">
<path fill="#6bba25" style="fill: var(--color3, #6bba25)" d="M31.186 5.395c0-0.509-0.413-0.923-0.922-0.923-1.68 0-6.182 0-6.416 0-3.539 0-6.416 2.878-6.416 6.416v5.508c0 1.515-1.239 2.754-2.754 2.754h-2.754c-1.515 0-2.754-1.239-2.754-2.754v-2.657c-3.098 0.454-5.508 3.098-5.508 6.334v11.001c0 0.509 0.413 0.922 0.923 0.922h3.676c0.509 0 0.922-0.413 0.922-0.922v-7.545c3.057 1.501 7.036 1.501 10.093 0v7.545c0 0.509 0.413 0.922 0.923 0.922h3.663c0.509 0 0.922-0.413 0.922-0.922v-17.253l0.592 0.702c0.523 0.606 1.294 0.964 2.093 0.964h0.991c0.509 0 0.922-0.413 0.922-0.922v-8.248h0.923c0.468 0 0.881-0.413 0.881-0.923z"></path>
<path fill="#6bba25" style="fill: var(--color3, #6bba25)" d="M4.392 6.483l3.456 1.157 1.157 3.456c0.124 0.358 0.454 0.606 0.826 0.633 0.427 0 0.744-0.234 0.881-0.551l3.897-9.087c0.151-0.344 0.069-0.744-0.193-1.005s-0.661-0.344-1.005-0.193l-9.088 3.883c-0.344 0.151-0.565 0.496-0.551 0.881 0 0.386 0.248 0.716 0.62 0.826z"></path>
<path fill="#6bba25" style="fill: var(--color3, #6bba25)" d="M11.002 16.396c0 0.509 0.413 0.923 0.922 0.923h2.754c0.509 0 0.922-0.413 0.922-0.923v-2.754h-4.599v2.754z"></path>
<path fill="#6bba25" style="fill: var(--color3, #6bba25)" d="M4.613 13.946c-2.657 0.785-4.613 3.222-4.613 6.127v1.831c0 0.509 0.413 0.922 0.923 0.922h0.923v-2.754c-0.014-2.437 1.074-4.613 2.768-6.127z"></path>
</symbol>
<symbol id="icon-pic-4" viewBox="0 0 32 32">
<path fill="#6bba25" style="fill: var(--color3, #6bba25)" d="M24.846 6.275h-1.765c-5.362 0-9.728 4.366-9.728 9.728v1.765c0 0.491 0.398 0.889 0.889 0.889h1.765c5.362 0 9.728-4.366 9.728-9.728v-1.778c-0.013-0.478-0.411-0.876-0.889-0.876zM23.704 9.553l-1.659 1.659 0.624 0.624c0.345 0.345 0.345 0.902 0 1.248s-0.902 0.345-1.247 0l-0.624-0.624-1.248 1.248 0.624 0.624c0.345 0.345 0.345 0.902 0 1.248s-0.902 0.345-1.247 0l-0.624-0.624-1.672 1.672c-0.345 0.345-0.902 0.345-1.248 0s-0.345-0.902 0-1.248l1.659-1.672-0.624-0.624c-0.345-0.345-0.345-0.902 0-1.248s0.902-0.345 1.248 0l0.624 0.624 1.248-1.248-0.624-0.624c-0.345-0.345-0.345-0.902 0-1.248s0.902-0.345 1.247 0l0.624 0.624 1.659-1.659c0.345-0.345 0.902-0.345 1.247 0 0.358 0.332 0.358 0.902 0.013 1.248zM28.376 0.966h-24.752c-1.46 0-2.654 1.194-2.654 2.654v17.678c0 1.46 1.194 2.654 2.654 2.654h24.752c1.46 0 2.654-1.194 2.654-2.654v-17.678c0-1.46-1.194-2.654-2.654-2.654zM27.5 8.929c0 6.344-5.163 11.493-11.493 11.493h-1.778c-1.46 0-2.654-1.194-2.654-2.654v-0.889h-4.419c-0.491 0-0.889-0.398-0.889-0.889s0.398-0.889 0.889-0.889h4.459c0.053-0.611 0.146-1.194 0.279-1.765h-6.503c-0.491 0-0.889-0.398-0.889-0.889s0.398-0.889 0.889-0.889h7.074c0.265-0.624 0.584-1.208 0.942-1.765h-4.473c-0.491 0-0.889-0.398-0.889-0.889s0.398-0.889 0.889-0.889h5.866c2.097-2.177 5.030-3.53 8.268-3.53h1.765c1.46 0 2.654 1.194 2.654 2.654v1.792h0.013zM23.067 29.261h-1.765c-1.46 0-2.654-1.194-2.654-2.654v-0.889h-5.309v0.889c0 1.46-1.194 2.654-2.654 2.654h-1.752c-0.491 0-0.889 0.398-0.889 0.889s0.398 0.889 0.889 0.889c0.319 0 14.32 0 14.148 0 0.491 0 0.889-0.398 0.889-0.889-0.013-0.491-0.411-0.889-0.902-0.889z"></path>
</symbol>
<symbol id="icon-pic-5" viewBox="0 0 32 32">
<path fill="#6bba25" style="fill: var(--color3, #6bba25)" d="M25.486 2.755v-1.826c0-0.508-0.389-0.92-0.868-0.92h-17.25c-0.479 0-0.855 0.412-0.855 0.92v1.826c0 1.51 1.166 2.746 2.59 2.746h0.945c0.389 2.787 2.461 4.998 5.090 5.396v1.922h-2.59c-0.479 0-0.868 0.412-0.868 0.92v3.652c0 0.508 0.388 0.92 0.868 0.92h6.903c0.479 0 0.868-0.412 0.868-0.92v-3.666c0-0.508-0.388-0.92-0.868-0.92h-2.59v-1.922c2.629-0.412 4.701-2.609 5.090-5.396h0.945c1.438 0.014 2.59-1.222 2.59-2.732zM9.959 3.661h-0.855c-0.479 0-0.868-0.412-0.868-0.92v-0.92h1.722v1.84zM23.764 2.755c0 0.508-0.389 0.92-0.868 0.92h-0.868v-1.84h1.723v0.92h0.013zM21.174 20.136h-10.348c-0.479 0-0.868 0.398-0.868 0.92v10.064h12.083v-10.064c0-0.522-0.376-0.92-0.868-0.92zM16.861 26.534c0 0.508-0.389 0.92-0.868 0.92s-0.868-0.412-0.868-0.92v-1.826c0-0.508 0.388-0.92 0.868-0.92s0.868 0.412 0.868 0.92v1.826zM29.799 23.788h-6.035v7.318h6.035c0.479 0 0.868-0.412 0.868-0.92v-5.492c0-0.494-0.389-0.906-0.868-0.906zM1.333 26.534v3.652c0 0.508 0.389 0.92 0.868 0.92h6.035v-5.492h-6.035c-0.479 0-0.868 0.412-0.868 0.92z"></path>
<symbol id="icon-pic-6" viewBox="0 0 42 32">
<path fill="#6bba25" style="fill: var(--color1, #6bba25)" d="M0.082 20.784c0-3.246 0-6.491 0.035-9.766 0.066-0.085 0.118-0.138 0.124-0.197 0.061-0.621 0.089-1.247 0.176-1.864 0.175-1.243 0.367-2.484 0.58-3.72 0.18-1.047 0.646-1.981 1.606-2.468 0.833-0.423 1.755-0.695 2.663-0.942 2.073-0.565 4.183-0.961 6.324-1.168 1.485-0.144 2.972-0.271 4.458-0.416 0.098-0.010 0.188-0.104 0.282-0.159 2.916 0 5.832 0 8.776 0.035 0.098 0.066 0.166 0.119 0.238 0.126 1.015 0.087 2.034 0.145 3.047 0.257 1.278 0.14 2.552 0.316 3.826 0.49 1.903 0.259 3.752 0.749 5.586 1.312 1.471 0.452 2.406 1.377 2.678 2.897 0.231 1.29 0.434 2.587 0.584 3.888 0.154 1.336 0.299 2.679 0.322 4.022 0.035 2.069-0.016 4.141-0.075 6.21-0.032 1.127-0.11 2.257-0.249 3.376-0.172 1.379-0.399 2.754-0.659 4.119-0.244 1.284-1.003 2.155-2.273 2.55-0.425 0.132-0.844 0.282-1.268 0.414-2.055 0.643-4.168 1.012-6.294 1.308-1.221 0.17-2.448 0.315-3.677 0.409-1.563 0.119-3.131 0.234-4.697 0.243-1.845 0.010-3.692-0.077-5.536-0.156-1.1-0.047-2.201-0.127-3.295-0.247-1.479-0.162-2.956-0.358-4.428-0.574-2.019-0.297-3.996-0.786-5.908-1.502-0.927-0.347-1.601-1.033-1.854-1.983-0.541-2.031-0.822-4.11-0.933-6.21-0.005-0.097-0.103-0.188-0.158-0.282zM21.39 12.131c-1.255-0.829-2.509-1.659-3.802-2.513 0 4.212 0 8.354 0 12.555 3.156-2.105 6.269-4.181 9.417-6.28-1.906-1.277-3.735-2.502-5.615-3.761z"></path>
</symbol>
<symbol id="icon-facebook" viewBox="0 0 32 32">
<path fill="none" stroke="#989996" style="stroke: var(--color1, #989996)" stroke-linejoin="miter" stroke-linecap="butt" stroke-miterlimit="4" stroke-width="0.8" d="M5.6 0.4h20.8c2.872 0 5.2 2.328 5.2 5.2v20.8c0 2.872-2.328 5.2-5.2 5.2h-20.8c-2.872 0-5.2-2.328-5.2-5.2v-20.8c0-2.872 2.328-5.2 5.2-5.2z"></path>
<path fill="#6e716a" style="fill: var(--color2, #6e716a)" d="M19.574 17l0.427-2.896h-2.667v-1.879c0-0.792 0.373-1.564 1.567-1.564h1.213v-2.465c0 0-1.1-0.196-2.152-0.196-2.197 0-3.632 1.387-3.632 3.898v2.207h-2.442v2.896h2.442v7h3.005v-7h2.241z"></path>
</symbol>
<symbol id="icon-telegram" viewBox="0 0 32 32">
<path fill="#6e716a" style="fill: var(--color2, #6e716a)" d="M23.604 10.744l-2.429 11.457c-0.183 0.808-0.661 1.010-1.34 0.629l-3.702-2.728-1.786 1.718c-0.198 0.198-0.363 0.363-0.744 0.363l0.266-3.77 6.86-6.199c0.298-0.266-0.065-0.413-0.463-0.147l-8.481 5.341-3.651-1.143c-0.794-0.248-0.808-0.794 0.166-1.175l14.281-5.502c0.661-0.248 1.24 0.147 1.024 1.157v-0.001z"></path>
<path fill="none" stroke="#989996" style="stroke: var(--color1, #989996)" stroke-linejoin="miter" stroke-linecap="butt" stroke-miterlimit="4" stroke-width="0.8" d="M5.6 0.4h20.8c2.872 0 5.2 2.328 5.2 5.2v20.8c0 2.872-2.328 5.2-5.2 5.2h-20.8c-2.872 0-5.2-2.328-5.2-5.2v-20.8c0-2.872 2.328-5.2 5.2-5.2z"></path>
</symbol>
<symbol id="icon-inst" viewBox="0 0 32 32">
<path fill="#6e716a" style="fill: var(--color2, #6e716a)" d="M16.4 12.997c-1.434 0-2.604 1.17-2.604 2.604s1.17 2.604 2.604 2.604c1.434 0 2.604-1.17 2.604-2.604s-1.17-2.604-2.604-2.604zM24.209 15.6c0-1.078 0.010-2.146-0.051-3.223-0.061-1.25-0.346-2.359-1.26-3.273-0.916-0.916-2.023-1.199-3.273-1.26-1.078-0.061-2.146-0.051-3.223-0.051-1.078 0-2.146-0.010-3.223 0.051-1.25 0.061-2.359 0.346-3.273 1.26-0.916 0.916-1.199 2.023-1.26 3.273-0.061 1.078-0.051 2.146-0.051 3.223s-0.010 2.146 0.051 3.223c0.060 1.25 0.346 2.359 1.26 3.273 0.916 0.916 2.023 1.199 3.273 1.26 1.078 0.060 2.146 0.051 3.223 0.051 1.078 0 2.146 0.010 3.223-0.051 1.25-0.061 2.359-0.346 3.273-1.26 0.916-0.916 1.199-2.023 1.26-3.273 0.062-1.076 0.051-2.145 0.051-3.223zM16.4 19.606c-2.217 0-4.006-1.789-4.006-4.006s1.789-4.006 4.006-4.006c2.217 0 4.006 1.789 4.006 4.006s-1.789 4.006-4.006 4.006zM20.57 12.366c-0.518 0-0.936-0.418-0.936-0.936s0.418-0.936 0.936-0.936c0.518 0 0.936 0.418 0.936 0.936 0 0.123-0.024 0.245-0.071 0.358s-0.116 0.217-0.203 0.304c-0.087 0.087-0.19 0.156-0.304 0.203s-0.235 0.071-0.358 0.071z"></path>
<path fill="none" stroke="#989996" style="stroke: var(--color1, #989996)" stroke-linejoin="miter" stroke-linecap="butt" stroke-miterlimit="4" stroke-width="0.8" d="M5.6 0.4h20.8c2.872 0 5.2 2.328 5.2 5.2v20.8c0 2.872-2.328 5.2-5.2 5.2h-20.8c-2.872 0-5.2-2.328-5.2-5.2v-20.8c0-2.872 2.328-5.2 5.2-5.2z"></path>
</symbol>
<symbol id="icon-message" viewBox="0 0 32 32">
<path fill="#6e716a" style="fill: var(--color2, #6e716a)" d="M22.8 8.8h-11.733c-0.809 0-1.467 0.656-1.467 1.461v8.812c0 0.805 0.658 1.461 1.467 1.461h2.2v2.933l4.657-2.933h4.876c0.809 0 1.467-0.656 1.467-1.461v-8.812c-0.001-0.388-0.156-0.76-0.431-1.034s-0.647-0.427-1.035-0.427z"></path>
<path fill="none" stroke="#989996" style="stroke: var(--color1, #989996)" stroke-linejoin="miter" stroke-linecap="butt" stroke-miterlimit="4" stroke-width="0.8" d="M5.6 0.4h20.8c2.872 0 5.2 2.328 5.2 5.2v20.8c0 2.872-2.328 5.2-5.2 5.2h-20.8c-2.872 0-5.2-2.328-5.2-5.2v-20.8c0-2.872 2.328-5.2 5.2-5.2z"></path>
</symbol>
<symbol id="icon-mail" viewBox="0 0 32 32">
<path fill="#6e716a" style="fill: var(--color2, #6e716a)" d="M23.543 13.711v6.118c0 0.591-0.235 1.158-0.653 1.576s-0.985 0.653-1.576 0.653h-10.629c-0.591 0-1.158-0.235-1.576-0.653s-0.653-0.985-0.653-1.576v-6.118c0-0.071 0.004-0.141 0.012-0.211l7.258 4.536c0.071 0.045 0.152 0.071 0.236 0.077s0.168-0.009 0.245-0.043l0.065-0.034 7.258-4.536c0.008 0.069 0.012 0.14 0.012 0.211zM16.282 7.914l6.411 4.222c0.169 0.111 0.316 0.247 0.439 0.4l-7.133 4.457-7.133-4.457c0.123-0.154 0.27-0.289 0.439-0.4l6.411-4.222c0.084-0.055 0.182-0.085 0.283-0.085s0.199 0.029 0.283 0.085h-0.001z"></path>
<path fill="none" stroke="#989996" style="stroke: var(--color1, #989996)" stroke-linejoin="miter" stroke-linecap="butt" stroke-miterlimit="4" stroke-width="0.8" d="M5.6 0.4h20.8c2.872 0 5.2 2.328 5.2 5.2v20.8c0 2.872-2.328 5.2-5.2 5.2h-20.8c-2.872 0-5.2-2.328-5.2-5.2v-20.8c0-2.872 2.328-5.2 5.2-5.2z"></path>
</symbol>
<symbol id="icon-ace-foot" viewBox="0 0 142 32">
<path fill="#121212" style="fill: var(--color1, #121212)" d="M41.715 22.865c-1.439 1.439-3.272 2.419-5.267 2.816s-4.064 0.194-5.944-0.585c-1.88-0.778-3.487-2.097-4.617-3.789s-1.734-3.681-1.734-5.716c0-2.035 0.603-4.024 1.734-5.716s2.737-3.010 4.617-3.789 3.949-0.982 5.944-0.585c1.996 0.397 3.829 1.377 5.267 2.816l-2.851 2.845c-5.824-5.824-14.674 3.023-8.847 8.849 1.173 1.173 2.764 1.832 4.423 1.832s3.25-0.659 4.423-1.832l2.851 2.853z"></path>
<path fill="#6bba25" style="fill: var(--color2, #6bba25)" d="M119.48 22.865c-1.439 1.439-3.272 2.419-5.267 2.816-1.996 0.397-4.065 0.194-5.945-0.585s-3.487-2.097-4.617-3.789c-1.131-1.692-1.734-3.681-1.734-5.716s0.603-4.024 1.734-5.716c1.13-1.692 2.737-3.010 4.617-3.789s3.948-0.982 5.945-0.585c1.995 0.397 3.828 1.377 5.267 2.816l-2.85 2.845c-5.825-5.824-14.674 3.023-8.848 8.849 1.173 1.173 2.764 1.832 4.424 1.832 1.658 0 3.25-0.659 4.424-1.832l2.85 2.853z"></path>
<path fill="#6bba25" style="fill: var(--color2, #6bba25)" d="M98.258 5.367h-4.030v20.526h4.030v-20.526z"></path>
<path fill="#6bba25" style="fill: var(--color2, #6bba25)" d="M142.282 5.217l-12.474 10.311 12.537 10.363h-6.325l-8.841-7.308v7.308h-4.030v-25.891h4.030v12.473l8.779-7.256h6.324z"></path>
<path fill="#121212" style="fill: var(--color1, #121212)" d="M20.571 15.592v10.305h-4.030v-10.305c0-1.238-0.366-2.448-1.054-3.477s-1.665-1.832-2.808-2.306c-1.143-0.474-2.402-0.598-3.616-0.357s-2.329 0.837-3.205 1.712c-0.875 0.875-1.472 1.99-1.713 3.204s-0.118 2.472 0.356 3.616c0.474 1.144 1.276 2.121 2.305 2.809s2.239 1.055 3.477 1.055v4.030c-2.034-0-4.023-0.604-5.714-1.734s-3.009-2.737-3.787-4.616c-0.778-1.88-0.982-3.947-0.584-5.942s1.377-3.828 2.815-5.266c1.439-1.438 3.271-2.418 5.266-2.814s4.063-0.193 5.942 0.586c1.879 0.779 3.486 2.097 4.616 3.788s1.733 3.68 1.733 5.714z"></path>
<path fill="#121212" style="fill: var(--color1, #121212)" d="M12.456 15.97c0 1.235-1.001 2.236-2.236 2.236s-2.236-1.001-2.236-2.236c0-1.235 1.001-2.236 2.236-2.236s2.236 1.001 2.236 2.236z"></path>
<path fill="#121212" style="fill: var(--color1, #121212)" d="M49.347 13.811h12.881c-0.392-1.407-1.233-2.647-2.396-3.531s-2.584-1.362-4.044-1.362-2.881 0.478-4.044 1.362c-1.163 0.884-2.005 2.124-2.396 3.531zM62.086 17.84h-12.593c0.41 1.141 1.123 2.15 2.062 2.917s2.069 1.265 3.269 1.439 2.425 0.019 3.544-0.45c1.119-0.469 2.088-1.233 2.806-2.21h4.573c-1.016 2.564-2.983 4.636-5.491 5.783s-5.362 1.281-7.966 0.373c-2.604-0.908-4.756-2.788-6.007-5.245s-1.503-5.304-0.704-7.944c0.799-2.64 2.587-4.868 4.991-6.22s5.237-1.723 7.908-1.034c2.671 0.688 4.972 2.382 6.423 4.728s1.939 5.161 1.363 7.858l-4.176 0.006z"></path>
<path fill="#6bba25" style="fill: var(--color2, #6bba25)" d="M80.381 21.917c1.235 0 2.442-0.365 3.47-1.049s1.83-1.658 2.306-2.797c0.476-1.14 0.604-2.394 0.368-3.607s-0.825-2.328-1.694-3.206c-0.868-0.878-1.977-1.479-3.187-1.728s-2.466-0.135-3.61 0.329c-1.145 0.463-2.127 1.255-2.822 2.276s-1.074 2.224-1.087 3.459v15.659h-4.030v-15.592c0-2.035 0.603-4.024 1.734-5.716s2.737-3.010 4.617-3.789 3.949-0.982 5.944-0.585c1.996 0.397 3.829 1.377 5.267 2.816s2.418 3.272 2.815 5.268c0.397 1.996 0.193 4.064-0.586 5.944s-2.098 3.486-3.79 4.617c-1.692 1.13-3.681 1.733-5.716 1.733v-4.030z"></path>
</symbol>
<symbol id="icon-arrow-down" viewBox="0 0 57 32">
<path d="M25.93 30.959c1.389 1.388 3.64 1.388 5.028 0l22.628-22.627c1.388-1.389 1.388-3.64 0-5.028s-3.64-1.389-5.028 0l-20.113 20.113-20.113-20.113c-1.389-1.389-3.64-1.389-5.028 0s-1.389 3.64 0 5.028l22.627 22.627zM24.889 24.889v3.556h7.111v-3.556h-7.111z"></path>
</symbol>
<symbol id="icon-coment" viewBox="0 0 60 32">
<path fill="#d9dcd4" style="fill: var(--color4, #d9dcd4)" d="M-0 3.15l0 28.85h59.474l-56.7-30.507c-1.254-0.675-2.774 0.234-2.774 1.658z"></path>
</symbol>
<symbol id="icon-shield" viewBox="0 0 32 32">
<path fill="none" stroke="#beff06" style="stroke: var(--color1, #beff06)" stroke-linejoin="round" stroke-linecap="round" stroke-miterlimit="4" stroke-width="1.0909" d="M5.143 14.052v-7.337c0-0.265 0.105-0.52 0.293-0.707s0.442-0.293 0.707-0.293h20c0.265 0 0.52 0.105 0.707 0.293s0.293 0.442 0.293 0.707v7.337c0 10.5-8.913 13.975-10.688 14.563-0.202 0.075-0.423 0.075-0.625 0-1.775-0.587-10.687-4.063-10.687-14.563z"></path>
<path fill="none" stroke="#beff06" style="stroke: var(--color1, #beff06)" stroke-linejoin="round" stroke-linecap="round" stroke-miterlimit="4" stroke-width="1.0909" d="M10.929 14.375h2.679v5.804h-2.679c-0.118 0-0.232-0.047-0.316-0.131s-0.131-0.197-0.131-0.316v-4.911c0-0.118 0.047-0.232 0.131-0.316s0.197-0.131 0.316-0.131v0z"></path>
<path fill="none" stroke="#beff06" style="stroke: var(--color1, #beff06)" stroke-linejoin="round" stroke-linecap="round" stroke-miterlimit="4" stroke-width="1.0909" d="M13.607 14.375l2.232-4.464c0.474 0 0.928 0.188 1.263 0.523s0.523 0.789 0.523 1.263v1.339h3.454c0.127-0 0.252 0.026 0.367 0.079s0.218 0.128 0.302 0.223c0.084 0.095 0.146 0.207 0.182 0.328s0.047 0.249 0.030 0.374l-0.67 5.357c-0.027 0.215-0.131 0.413-0.294 0.557s-0.371 0.224-0.588 0.225h-6.802"></path>
</symbol>
<symbol id="icon-hero-star-green" viewBox="0 0 32 32">
<path fill="#beff06" style="fill: var(--color1, #beff06)" d="M16.677 25.654l7.753 4.923c1 0.631 2.231-0.308 1.938-1.461l-2.246-8.83c-0.061-0.245-0.051-0.502 0.028-0.741s0.224-0.452 0.418-0.613l6.953-5.8c0.908-0.754 0.446-2.277-0.738-2.354l-9.076-0.585c-0.248-0.014-0.486-0.101-0.685-0.248s-0.352-0.35-0.438-0.583l-3.384-8.522c-0.090-0.246-0.253-0.459-0.467-0.609s-0.47-0.231-0.732-0.231-0.518 0.081-0.732 0.231c-0.215 0.15-0.378 0.363-0.467 0.609l-3.384 8.522c-0.086 0.233-0.238 0.435-0.438 0.583s-0.438 0.234-0.685 0.248l-9.076 0.585c-1.185 0.077-1.646 1.6-0.738 2.354l6.953 5.8c0.194 0.161 0.339 0.373 0.418 0.613s0.089 0.496 0.028 0.741l-2.077 8.184c-0.354 1.384 1.123 2.508 2.308 1.754l7.215-4.569c0.202-0.129 0.437-0.197 0.677-0.197s0.475 0.068 0.677 0.197z"></path>
</symbol>
<symbol id="icon-hero-star-gray" viewBox="0 0 32 32">
<path fill="#8c8f87" style="fill: var(--color2, #8c8f87)" d="M16.677 25.654l7.753 4.923c1 0.631 2.231-0.308 1.938-1.461l-2.246-8.83c-0.061-0.245-0.051-0.502 0.028-0.741s0.224-0.452 0.418-0.613l6.953-5.8c0.908-0.754 0.446-2.277-0.738-2.354l-9.076-0.585c-0.248-0.014-0.486-0.101-0.685-0.248s-0.352-0.35-0.438-0.583l-3.384-8.522c-0.090-0.246-0.253-0.459-0.467-0.609s-0.47-0.231-0.732-0.231-0.518 0.081-0.732 0.231c-0.215 0.15-0.378 0.363-0.467 0.609l-3.384 8.522c-0.086 0.233-0.238 0.435-0.438 0.583s-0.438 0.234-0.685 0.248l-9.076 0.585c-1.185 0.077-1.646 1.6-0.738 2.354l6.953 5.8c0.194 0.161 0.339 0.373 0.418 0.613s0.089 0.496 0.028 0.741l-2.077 8.184c-0.354 1.384 1.123 2.508 2.308 1.754l7.215-4.569c0.202-0.129 0.437-0.197 0.677-0.197s0.475 0.068 0.677 0.197z"></path>
</symbol>
<symbol id="icon-disadvant" viewBox="0 0 32 32">
<path fill="#c03" style="fill: var(--color1, #c03); stroke: var(--color1, #c03)" stroke="#c03" stroke-linejoin="round" stroke-linecap="round" stroke-miterlimit="4" stroke-width="2.1818" d="M16.571 28.571c6.627 0 12-5.373 12-12s-5.373-12-12-12c-6.627 0-12 5.373-12 12s5.373 12 12 12z"></path>
<path fill="none" stroke="#fff" style="stroke: var(--color2, #fff)" stroke-linejoin="round" stroke-linecap="round" stroke-miterlimit="4" stroke-width="1.3636" d="M21.393 11.75l-9.643 9.643"></path>
<path fill="none" stroke="#fff" style="stroke: var(--color2, #fff)" stroke-linejoin="round" stroke-linecap="round" stroke-miterlimit="4" stroke-width="1.3636" d="M21.393 21.393l-9.643-9.643"></path>
</symbol>
<symbol id="icon-faq-arrow" viewBox="0 0 32 32">
<path fill="none" stroke="#6bba25" style="stroke: var(--color1, #6bba25)" stroke-linejoin="miter" stroke-linecap="butt" stroke-miterlimit="10" stroke-width="1.3913" d="M16 28c6.627 0 12-5.373 12-12s-5.373-12-12-12c-6.627 0-12 5.373-12 12s5.373 12 12 12z"></path>
<path fill="none" stroke="#6bba25" style="stroke: var(--color1, #6bba25)" stroke-linejoin="round" stroke-linecap="round" stroke-miterlimit="4" stroke-width="1.3913" d="M20.5 14.5l-4.5 5-4.5-5"></path>
</symbol>

</defs>
</svg>
